<svg id="visual" viewBox="0 0 900 600" width="900" height="600" xmlns="http://www.w3.org/2000/svg" xmlns:xlink="http://www.w3.org/1999/xlink" version="1.1"><rect x="0" y="0" width="900" height="600" fill="#000205"></rect><defs><linearGradient id="grad1_0" x1="33.3%" y1="0%" x2="100%" y2="100%"><stop offset="20%" stop-color="#000205" stop-opacity="1"></stop><stop offset="80%" stop-color="#000205" stop-opacity="1"></stop></linearGradient></defs><defs><linearGradient id="grad2_0" x1="0%" y1="0%" x2="66.7%" y2="100%"><stop offset="20%" stop-color="#000205" stop-opacity="1"></stop><stop offset="80%" stop-color="#000205" stop-opacity="1"></stop></linearGradient></defs><g transform="translate(900, 0)"><path d="M0 486.7C-68.8 485.6 -137.6 484.5 -186.3 449.7C-235 414.9 -263.6 346.3 -294.9 294.9C-326.2 243.4 -360.2 208.9 -392.6 162.6C-425.1 116.3 -455.9 58.2 -486.7 0L0 0Z" fill="#0066FF"></path></g><g transform="translate(0, 600)"><path d="M0 -486.7C59.2 -465.3 118.3 -443.9 173.7 -419.4C229.1 -395 280.8 -367.5 329.5 -329.5C378.2 -291.5 424 -242.9 449.7 -186.3C475.4 -129.6 481.1 -64.8 486.7 0L0 0Z" fill="#0066FF"></path></g></svg>